<svg width="44" height="44" viewBox="0 0 44 44" fill="none" xmlns="http://www.w3.org/2000/svg">
<path d="M25.3332 17.8333C25.3332 17.0584 25.3332 16.6709 25.248 16.353C25.0168 15.4902 24.3429 14.8164 23.4802 14.5852C23.1623 14.5 22.7748 14.5 21.9998 14.5C21.2249 14.5 20.8374 14.5 20.5195 14.5852C19.6567 14.8164 18.9829 15.4902 18.7517 16.353C18.6665 16.6709 18.6665 17.0584 18.6665 17.8333M22.6665 26.5833H26.7498C26.9832 26.5833 27.0999 26.5833 27.189 26.5379C27.2674 26.498 27.3311 26.4342 27.3711 26.3558C27.4165 26.2667 27.4165 26.15 27.4165 25.9167V23.9167C27.4165 23.6833 27.4165 23.5666 27.3711 23.4775C27.3311 23.3991 27.2674 23.3354 27.189 23.2954C27.0999 23.25 26.9832 23.25 26.7498 23.25H22.6665C22.4331 23.25 22.3165 23.25 22.2273 23.2954C22.1489 23.3354 22.0852 23.3991 22.0453 23.4775C21.9998 23.5666 21.9998 23.6833 21.9998 23.9167V25.9167C21.9998 26.15 21.9998 26.2667 22.0453 26.3558C22.0852 26.4342 22.1489 26.498 22.2273 26.5379C22.3165 26.5833 22.4331 26.5833 22.6665 26.5833ZM17.6665 29.5H26.3332C27.7333 29.5 28.4334 29.5 28.9681 29.2275C29.4386 28.9878 29.821 28.6054 30.0607 28.135C30.3332 27.6002 30.3332 26.9001 30.3332 25.5V21.8333C30.3332 20.4332 30.3332 19.7331 30.0607 19.1984C29.821 18.728 29.4386 18.3455 28.9681 18.1058C28.4334 17.8333 27.7333 17.8333 26.3332 17.8333H17.6665C16.2664 17.8333 15.5663 17.8333 15.0315 18.1058C14.5611 18.3455 14.1787 18.728 13.939 19.1984C13.6665 19.7331 13.6665 20.4332 13.6665 21.8333V25.5C13.6665 26.9001 13.6665 27.6002 13.939 28.135C14.1787 28.6054 14.5611 28.9878 15.0315 29.2275C15.5663 29.5 16.2664 29.5 17.6665 29.5Z" stroke="#94979C" stroke-width="1.66667" stroke-linecap="round" stroke-linejoin="round"/>
</svg>
