<svg width="45" height="44" viewBox="0 0 45 44" fill="none" xmlns="http://www.w3.org/2000/svg">
<path d="M19.333 18.6666V17.8333M19.333 22.4166V21.5833M19.333 26.1666V25.3333M18.333 28.6666H26.9997C28.3998 28.6666 29.0999 28.6666 29.6347 28.3942C30.1051 28.1545 30.4875 27.772 30.7272 27.3016C30.9997 26.7668 30.9997 26.0668 30.9997 24.6666V19.3333C30.9997 17.9332 30.9997 17.2331 30.7272 16.6983C30.4875 16.2279 30.1051 15.8455 29.6347 15.6058C29.0999 15.3333 28.3998 15.3333 26.9997 15.3333H18.333C16.9329 15.3333 16.2328 15.3333 15.698 15.6058C15.2276 15.8455 14.8452 16.2279 14.6055 16.6983C14.333 17.2331 14.333 17.9332 14.333 19.3333V24.6666C14.333 26.0668 14.333 26.7668 14.6055 27.3016C14.8452 27.772 15.2276 28.1545 15.698 28.3942C16.2328 28.6666 16.9329 28.6666 18.333 28.6666Z" stroke="#94979C" stroke-width="1.66667" stroke-linecap="round" stroke-linejoin="round"/>
</svg>
