<svg width="44" height="44" viewBox="0 0 44 44" fill="none" xmlns="http://www.w3.org/2000/svg">
<path d="M18.6667 26.1667H25.3333M21.1814 14.3033L15.5295 18.6993C15.1517 18.9931 14.9628 19.14 14.8267 19.324C14.7061 19.487 14.6163 19.6707 14.5617 19.8659C14.5 20.0863 14.5 20.3256 14.5 20.8042V26.8333C14.5 27.7667 14.5 28.2335 14.6817 28.59C14.8414 28.9036 15.0964 29.1585 15.41 29.3183C15.7665 29.5 16.2332 29.5 17.1667 29.5H26.8333C27.7668 29.5 28.2335 29.5 28.59 29.3183C28.9036 29.1585 29.1586 28.9036 29.3183 28.59C29.5 28.2335 29.5 27.7667 29.5 26.8333V20.8042C29.5 20.3256 29.5 20.0863 29.4383 19.8659C29.3837 19.6707 29.2939 19.487 29.1733 19.324C29.0372 19.14 28.8483 18.9931 28.4705 18.6993L22.8186 14.3033C22.5258 14.0756 22.3794 13.9618 22.2178 13.918C22.0752 13.8794 21.9248 13.8794 21.7822 13.918C21.6206 13.9618 21.4742 14.0756 21.1814 14.3033Z" stroke="#A4A7B1" stroke-width="1.66667" stroke-linecap="round" stroke-linejoin="round"/>
</svg>
